999
"DXF R12 Output" (www.mydxf.blogspot.com)
 0 
SECTION
 2 
HEADER
 9 
$ACADVER
 1 
AC1009
 9 
$EXTMIN
 10 
 0 
 20 
 0 
 9 
$EXTMAX
 10 
 8.5 
 20 
 11 
 0 
ENDSEC
 0 
SECTION
 2 
ENTITIES
0
POLYLINE
8
Layer 1
62
7
70
0
10
0.000000
20
0.000000
66
1
0
VERTEX
8
Layer 1
10
108.386930
20
247.762094
70
0
0
VERTEX
8
Layer 1
10
109.446905
20
247.704793
70
0
0
VERTEX
8
Layer 1
10
110.426541
20
247.486046
70
0
0
VERTEX
8
Layer 1
10
111.344379
20
247.082729
70
0
0
VERTEX
8
Layer 1
10
112.218960
20
246.471714
70
0
0
VERTEX
8
Layer 1
10
113.079374
20
245.573198
70
0
0
VERTEX
8
Layer 1
10
113.705780
20
244.499444
70
0
0
VERTEX
8
Layer 1
10
113.917722
20
243.684814
70
0
0
VERTEX
8
Layer 1
10
113.874215
20
242.955831
70
0
0
VERTEX
8
Layer 1
10
113.634017
20
242.289501
70
0
0
VERTEX
8
Layer 1
10
113.255890
20
241.662829
70
0
0
VERTEX
8
Layer 1
10
112.320885
20
240.436487
70
0
0
VERTEX
8
Layer 1
10
111.539280
20
239.092854
70
0
0
VERTEX
8
Layer 1
10
110.989711
20
237.084185
70
0
0
VERTEX
8
Layer 1
10
110.723178
20
234.917189
70
0
0
VERTEX
8
Layer 1
10
110.696970
20
232.728248
70
0
0
VERTEX
8
Layer 1
10
110.868380
20
230.653744
70
0
0
VERTEX
8
Layer 1
10
111.674045
20
227.067971
70
0
0
VERTEX
8
Layer 1
10
112.077977
20
225.207293
70
0
0
VERTEX
8
Layer 1
10
112.198460
20
223.701154
70
0
0
VERTEX
8
Layer 1
10
111.880862
20
222.747927
70
0
0
VERTEX
8
Layer 1
10
111.225274
20
221.772963
70
0
0
VERTEX
8
Layer 1
10
109.840060
20
219.939144
70
0
0
VERTEX
8
Layer 1
10
109.067400
20
218.395740
70
0
0
VERTEX
8
Layer 1
10
108.477389
20
216.748584
70
0
0
VERTEX
8
Layer 1
10
108.091173
20
215.043228
70
0
0
VERTEX
8
Layer 1
10
107.929900
20
213.325224
70
0
0
VERTEX
8
Layer 1
10
107.945830
20
206.473528
70
0
0
VERTEX
8
Layer 1
10
108.083710
20
199.618974
70
0
0
VERTEX
8
Layer 1
10
108.555390
20
165.926980
70
0
0
VERTEX
8
Layer 1
10
108.902560
20
139.558620
70
0
0
VERTEX
8
Layer 1
10
108.903666
20
133.293850
70
0
0
VERTEX
8
Layer 1
10
108.959005
20
130.129466
70
0
0
VERTEX
8
Layer 1
10
109.166230
20
127.092800
70
0
0
VERTEX
8
Layer 1
10
109.545991
20
125.241054
70
0
0
VERTEX
8
Layer 1
10
109.972491
20
124.433628
70
0
0
VERTEX
8
Layer 1
10
110.653050
20
123.735380
70
0
0
VERTEX
8
Layer 1
10
111.868186
20
123.072720
70
0
0
VERTEX
8
Layer 1
10
113.304420
20
122.679227
70
0
0
VERTEX
8
Layer 1
10
114.795584
20
122.534026
70
0
0
VERTEX
8
Layer 1
10
116.175510
20
122.616240
70
0
0
VERTEX
8
Layer 1
10
118.232151
20
123.189909
70
0
0
VERTEX
8
Layer 1
10
119.183430
20
123.670721
70
0
0
VERTEX
8
Layer 1
10
120.064670
20
124.283230
70
0
0
VERTEX
8
Layer 1
10
121.255555
20
125.474982
70
0
0
VERTEX
8
Layer 1
10
122.023535
20
126.708826
70
0
0
VERTEX
8
Layer 1
10
122.484171
20
127.964643
70
0
0
VERTEX
8
Layer 1
10
122.753028
20
129.222315
70
0
0
VERTEX
8
Layer 1
10
123.177649
20
131.662746
70
0
0
VERTEX
8
Layer 1
10
123.564540
20
132.805268
70
0
0
VERTEX
8
Layer 1
10
124.221900
20
133.869170
70
0
0
VERTEX
8
Layer 1
10
124.778359
20
134.306789
70
0
0
VERTEX
8
Layer 1
10
125.465550
20
134.478540
70
0
0
VERTEX
8
Layer 1
10
126.145946
20
134.410747
70
0
0
VERTEX
8
Layer 1
10
126.803135
20
134.178045
70
0
0
VERTEX
8
Layer 1
10
127.944070
20
133.397490
70
0
0
VERTEX
8
Layer 1
10
129.213888
20
131.897166
70
0
0
VERTEX
8
Layer 1
10
130.097159
20
130.164189
70
0
0
VERTEX
8
Layer 1
10
130.635941
20
128.261989
70
0
0
VERTEX
8
Layer 1
10
130.872290
20
126.253995
70
0
0
VERTEX
8
Layer 1
10
130.848264
20
124.203635
70
0
0
VERTEX
8
Layer 1
10
130.605918
20
122.174338
70
0
0
VERTEX
8
Layer 1
10
130.187312
20
120.229534
70
0
0
VERTEX
8
Layer 1
10
129.634500
20
118.432650
70
0
0
VERTEX
8
Layer 1
10
127.977211
20
114.504305
70
0
0
VERTEX
8
Layer 1
10
127.167312
20
112.530107
70
0
0
VERTEX
8
Layer 1
10
126.545140
20
110.503450
70
0
0
VERTEX
8
Layer 1
10
126.254001
20
108.110445
70
0
0
VERTEX
8
Layer 1
10
126.408910
20
105.703160
70
0
0
VERTEX
8
Layer 1
10
127.022566
20
103.061453
70
0
0
VERTEX
8
Layer 1
10
127.981605
20
100.636999
70
0
0
VERTEX
8
Layer 1
10
130.403540
20
95.904820
70
0
0
VERTEX
8
Layer 1
10
132.462697
20
91.471354
70
0
0
VERTEX
8
Layer 1
10
134.172216
20
86.846042
70
0
0
VERTEX
8
Layer 1
10
134.850113
20
84.478052
70
0
0
VERTEX
8
Layer 1
10
135.385702
20
82.082029
70
0
0
VERTEX
8
Layer 1
10
135.760684
20
79.664618
70
0
0
VERTEX
8
Layer 1
10
135.956760
20
77.232460
70
0
0
VERTEX
8
Layer 1
10
135.815378
20
73.677513
70
0
0
VERTEX
8
Layer 1
10
135.518841
20
71.941049
70
0
0
VERTEX
8
Layer 1
10
135.064119
20
70.249183
70
0
0
VERTEX
8
Layer 1
10
134.445495
20
68.614857
70
0
0
VERTEX
8
Layer 1
10
133.657253
20
67.051016
70
0
0
VERTEX
8
Layer 1
10
132.693677
20
65.570602
70
0
0
VERTEX
8
Layer 1
10
131.549050
20
64.186560
70
0
0
VERTEX
8
Layer 1
10
130.189104
20
62.864613
70
0
0
VERTEX
8
Layer 1
10
128.748285
20
61.726032
70
0
0
VERTEX
8
Layer 1
10
127.234157
20
60.756705
70
0
0
VERTEX
8
Layer 1
10
125.654288
20
59.942519
70
0
0
VERTEX
8
Layer 1
10
122.327588
20
58.723119
70
0
0
VERTEX
8
Layer 1
10
118.828711
20
57.954931
70
0
0
VERTEX
8
Layer 1
10
115.218187
20
57.525054
70
0
0
VERTEX
8
Layer 1
10
111.556541
20
57.320585
70
0
0
VERTEX
8
Layer 1
10
104.322000
20
57.136270
70
0
0
VERTEX
8
Layer 1
10
103.032671
20
57.092067
70
0
0
VERTEX
8
Layer 1
10
103.554690
20
57.119114
70
0
0
VERTEX
8
Layer 1
10
104.081801
20
57.142363
70
0
0
VERTEX
8
Layer 1
10
102.807750
20
57.086770
70
0
0
VERTEX
8
Layer 1
10
100.208189
20
57.126029
70
0
0
VERTEX
8
Layer 1
10
97.631473
20
57.237340
70
0
0
VERTEX
8
Layer 1
10
94.920822
20
57.559641
70
0
0
VERTEX
8
Layer 1
10
92.194983
20
58.031012
70
0
0
VERTEX
8
Layer 1
10
89.486698
20
58.669513
70
0
0
VERTEX
8
Layer 1
10
86.828708
20
59.493201
70
0
0
VERTEX
8
Layer 1
10
84.253754
20
60.520137
70
0
0
VERTEX
8
Layer 1
10
81.794578
20
61.768377
70
0
0
VERTEX
8
Layer 1
10
79.483920
20
63.255982
70
0
0
VERTEX
8
Layer 1
10
77.354523
20
65.001010
70
0
0
VERTEX
8
Layer 1
10
75.908702
20
66.664706
70
0
0
VERTEX
8
Layer 1
10
74.706233
20
68.510780
70
0
0
VERTEX
8
Layer 1
10
73.706004
20
70.737366
70
0
0
VERTEX
8
Layer 1
10
73.053630
20
73.068459
70
0
0
VERTEX
8
Layer 1
10
72.710688
20
75.470687
70
0
0
VERTEX
8
Layer 1
10
72.638753
20
77.910680
70
0
0
VERTEX
8
Layer 1
10
72.938920
20
81.504766
70
0
0
VERTEX
8
Layer 1
10
73.635142
20
85.068638
70
0
0
VERTEX
8
Layer 1
10
74.645462
20
88.565493
70
0
0
VERTEX
8
Layer 1
10
75.887923
20
91.958530
70
0
0
VERTEX
8
Layer 1
10
77.863135
20
96.546924
70
0
0
VERTEX
8
Layer 1
10
79.791422
20
101.205356
70
0
0
VERTEX
8
Layer 1
10
80.579830
20
103.580835
70
0
0
VERTEX
8
Layer 1
10
81.166739
20
105.997823
70
0
0
VERTEX
8
Layer 1
10
81.488896
20
108.464318
70
0
0
VERTEX
8
Layer 1
10
81.483043
20
110.988320
70
0
0
VERTEX
8
Layer 1
10
81.209049
20
113.026285
70
0
0
VERTEX
8
Layer 1
10
80.741927
20
115.027994
70
0
0
VERTEX
8
Layer 1
10
79.510483
20
118.955610
70
0
0
VERTEX
8
Layer 1
10
77.763840
20
124.185951
70
0
0
VERTEX
8
Layer 1
10
76.950734
20
126.882738
70
0
0
VERTEX
8
Layer 1
10
76.272848
20
129.613633
70
0
0
VERTEX
8
Layer 1
10
75.801492
20
132.363410
70
0
0
VERTEX
8
Layer 1
10
75.607973
20
135.116843
70
0
0
VERTEX
8
Layer 1
10
75.763601
20
137.858705
70
0
0
VERTEX
8
Layer 1
10
76.339683
20
140.573770
70
0
0
VERTEX
8
Layer 1
10
76.809065
20
141.917263
70
0
0
VERTEX
8
Layer 1
10
77.472097
20
143.290691
70
0
0
VERTEX
8
Layer 1
10
78.350819
20
144.502069
70
0
0
VERTEX
8
Layer 1
10
79.467273
20
145.359410
70
0
0
VERTEX
8
Layer 1
10
80.701293
20
145.846105
70
0
0
VERTEX
8
Layer 1
10
81.909603
20
146.370150
70
0
0
VERTEX
8
Layer 1
10
82.354413
20
146.749980
70
0
0
VERTEX
8
Layer 1
10
82.547909
20
147.178562
70
0
0
VERTEX
8
Layer 1
10
82.697103
20
148.214390
70
0
0
VERTEX
8
Layer 1
10
83.529408
20
148.012526
70
0
0
VERTEX
8
Layer 1
10
84.308433
20
147.610870
70
0
0
VERTEX
8
Layer 1
10
84.553978
20
147.375214
70
0
0
VERTEX
8
Layer 1
10
84.637583
20
147.052760
70
0
0
VERTEX
8
Layer 1
10
84.314143
20
146.537130
70
0
0
VERTEX
8
Layer 1
10
83.988943
20
145.773950
70
0
0
VERTEX
8
Layer 1
10
84.212787
20
144.455226
70
0
0
VERTEX
8
Layer 1
10
84.579573
20
143.103540
70
0
0
VERTEX
8
Layer 1
10
84.807173
20
140.545006
70
0
0
VERTEX
8
Layer 1
10
84.925314
20
139.266906
70
0
0
VERTEX
8
Layer 1
10
85.164193
20
138.002950
70
0
0
VERTEX
8
Layer 1
10
85.750296
20
136.394505
70
0
0
VERTEX
8
Layer 1
10
86.621604
20
134.942891
70
0
0
VERTEX
8
Layer 1
10
87.762022
20
133.695625
70
0
0
VERTEX
8
Layer 1
10
89.155453
20
132.700220
70
0
0
VERTEX
8
Layer 1
10
90.423555
20
132.108195
70
0
0
VERTEX
8
Layer 1
10
91.798030
20
131.718044
70
0
0
VERTEX
8
Layer 1
10
93.209199
20
131.594861
70
0
0
VERTEX
8
Layer 1
10
94.587383
20
131.803740
70
0
0
VERTEX
8
Layer 1
10
95.497525
20
132.175146
70
0
0
VERTEX
8
Layer 1
10
96.327908
20
132.718350
70
0
0
VERTEX
8
Layer 1
10
97.040519
20
133.407399
70
0
0
VERTEX
8
Layer 1
10
97.597343
20
134.216340
70
0
0
VERTEX
8
Layer 1
10
98.293583
20
135.297390
70
0
0
VERTEX
8
Layer 1
10
99.172783
20
191.993870
70
0
0
VERTEX
8
Layer 1
10
99.383863
20
206.452024
70
0
0
VERTEX
8
Layer 1
10
99.567172
20
210.203142
70
0
0
VERTEX
8
Layer 1
10
99.589301
20
212.101462
70
0
0
VERTEX
8
Layer 1
10
99.428243
20
213.915694
70
0
0
VERTEX
8
Layer 1
10
99.087820
20
214.801760
70
0
0
VERTEX
8
Layer 1
10
98.503982
20
215.572485
70
0
0
VERTEX
8
Layer 1
10
97.854637
20
216.309237
70
0
0
VERTEX
8
Layer 1
10
97.317693
20
217.093384
70
0
0
VERTEX
8
Layer 1
10
97.140897
20
217.955436
70
0
0
VERTEX
8
Layer 1
10
97.271018
20
218.941579
70
0
0
VERTEX
8
Layer 1
10
97.828483
20
220.772194
70
0
0
VERTEX
8
Layer 1
10
97.058453
20
220.375586
70
0
0
VERTEX
8
Layer 1
10
96.240303
20
220.114774
70
0
0
VERTEX
8
Layer 1
10
95.693620
20
220.162163
70
0
0
VERTEX
8
Layer 1
10
95.214183
20
220.428394
70
0
0
VERTEX
8
Layer 1
10
94.927110
20
220.892348
70
0
0
VERTEX
8
Layer 1
10
94.867453
20
221.439574
70
0
0
VERTEX
8
Layer 1
10
95.076140
20
222.201532
70
0
0
VERTEX
8
Layer 1
10
95.576293
20
222.808914
70
0
0
VERTEX
8
Layer 1
10
96.073350
20
222.998303
70
0
0
VERTEX
8
Layer 1
10
96.601833
20
222.933134
70
0
0
VERTEX
8
Layer 1
10
97.057607
20
222.644102
70
0
0
VERTEX
8
Layer 1
10
97.401472
20
222.216845
70
0
0
VERTEX
8
Layer 1
10
97.911843
20
221.233474
70
0
0
VERTEX
8
Layer 1
10
98.636684
20
223.347263
70
0
0
VERTEX
8
Layer 1
10
99.258033
20
225.495874
70
0
0
VERTEX
8
Layer 1
10
98.465390
20
225.076819
70
0
0
VERTEX
8
Layer 1
10
97.627373
20
224.777074
70
0
0
VERTEX
8
Layer 1
10
97.035247
20
224.756401
70
0
0
VERTEX
8
Layer 1
10
96.495193
20
224.995334
70
0
0
VERTEX
8
Layer 1
10
96.306264
20
225.637302
70
0
0
VERTEX
8
Layer 1
10
96.400123
20
226.298604
70
0
0
VERTEX
8
Layer 1
10
96.696133
20
227.190843
70
0
0
VERTEX
8
Layer 1
10
96.943085
20
227.573295
70
0
0
VERTEX
8
Layer 1
10
97.306573
20
227.869504
70
0
0
VERTEX
8
Layer 1
10
97.945246
20
227.648542
70
0
0
VERTEX
8
Layer 1
10
98.430110
20
227.217043
70
0
0
VERTEX
8
Layer 1
10
99.347983
20
226.208954
70
0
0
VERTEX
8
Layer 1
10
99.727523
20
226.907244
70
0
0
VERTEX
8
Layer 1
10
100.196728
20
228.305402
70
0
0
VERTEX
8
Layer 1
10
100.323642
20
229.055223
70
0
0
VERTEX
8
Layer 1
10
100.217800
20
229.683564
70
0
0
VERTEX
8
Layer 1
10
99.608078
20
229.719107
70
0
0
VERTEX
8
Layer 1
10
98.983069
20
229.549109
70
0
0
VERTEX
8
Layer 1
10
98.345506
20
229.369031
70
0
0
VERTEX
8
Layer 1
10
97.698123
20
229.374334
70
0
0
VERTEX
8
Layer 1
10
97.492753
20
229.880584
70
0
0
VERTEX
8
Layer 1
10
97.718320
20
231.150053
70
0
0
VERTEX
8
Layer 1
10
97.986788
20
231.789154
70
0
0
VERTEX
8
Layer 1
10
98.334893
20
232.271644
70
0
0
VERTEX
8
Layer 1
10
98.610852
20
232.399708
70
0
0
VERTEX
8
Layer 1
10
98.928443
20
232.393514
70
0
0
VERTEX
8
Layer 1
10
99.442639
20
232.078685
70
0
0
VERTEX
8
Layer 1
10
99.858623
20
231.636634
70
0
0
VERTEX
8
Layer 1
10
100.255522
20
231.127054
70
0
0
VERTEX
8
Layer 1
10
100.767990
20
230.824234
70
0
0
VERTEX
8
Layer 1
10
101.176576
20
231.615568
70
0
0
VERTEX
8
Layer 1
10
101.475766
20
232.583604
70
0
0
VERTEX
8
Layer 1
10
101.897680
20
234.492494
70
0
0
VERTEX
8
Layer 1
10
100.814264
20
233.845840
70
0
0
VERTEX
8
Layer 1
10
100.223550
20
233.662878
70
0
0
VERTEX
8
Layer 1
10
99.605053
20
233.707634
70
0
0
VERTEX
8
Layer 1
10
99.038303
20
234.185754
70
0
0
VERTEX
8
Layer 1
10
98.877610
20
234.790277
70
0
0
VERTEX
8
Layer 1
10
98.956423
20
235.414464
70
0
0
VERTEX
8
Layer 1
10
99.282534
20
236.049144
70
0
0
VERTEX
8
Layer 1
10
99.848803
20
236.494644
70
0
0
VERTEX
8
Layer 1
10
100.632200
20
236.442354
70
0
0
VERTEX
8
Layer 1
10
101.101737
20
236.114785
70
0
0
VERTEX
8
Layer 1
10
101.446894
20
235.646506
70
0
0
VERTEX
8
Layer 1
10
101.947480
20
234.582144
70
0
0
VERTEX
8
Layer 1
10
102.463110
20
236.067644
70
0
0
VERTEX
8
Layer 1
10
102.875461
20
237.338746
70
0
0
VERTEX
8
Layer 1
10
102.950900
20
237.997168
70
0
0
VERTEX
8
Layer 1
10
102.808810
20
238.610614
70
0
0
VERTEX
8
Layer 1
10
102.337040
20
238.621674
70
0
0
VERTEX
8
Layer 1
10
101.865819
20
238.466198
70
0
0
VERTEX
8
Layer 1
10
100.920630
20
238.153144
70
0
0
VERTEX
8
Layer 1
10
100.600430
20
238.200311
70
0
0
VERTEX
8
Layer 1
10
100.348900
20
238.403044
70
0
0
VERTEX
8
Layer 1
10
100.237063
20
239.016831
70
0
0
VERTEX
8
Layer 1
10
100.287757
20
239.590740
70
0
0
VERTEX
8
Layer 1
10
100.679810
20
240.734494
70
0
0
VERTEX
8
Layer 1
10
100.940881
20
241.199854
70
0
0
VERTEX
8
Layer 1
10
101.384990
20
241.483174
70
0
0
VERTEX
8
Layer 1
10
101.992052
20
241.167811
70
0
0
VERTEX
8
Layer 1
10
102.413857
20
240.625363
70
0
0
VERTEX
8
Layer 1
10
102.805727
20
240.048637
70
0
0
VERTEX
8
Layer 1
10
103.322980
20
239.630444
70
0
0
VERTEX
8
Layer 1
10
103.541240
20
239.780294
70
0
0
VERTEX
8
Layer 1
10
104.005229
20
241.034511
70
0
0
VERTEX
8
Layer 1
10
104.339580
20
242.307734
70
0
0
VERTEX
8
Layer 1
10
104.317064
20
242.621888
70
0
0
VERTEX
8
Layer 1
10
104.119850
20
242.862324
70
0
0
VERTEX
8
Layer 1
10
103.607177
20
242.836288
70
0
0
VERTEX
8
Layer 1
10
103.118812
20
242.694235
70
0
0
VERTEX
8
Layer 1
10
102.171610
20
242.519554
70
0
0
VERTEX
8
Layer 1
10
101.629800
20
242.776486
70
0
0
VERTEX
8
Layer 1
10
101.256080
20
243.247874
70
0
0
VERTEX
8
Layer 1
10
101.538790
20
244.370094
70
0
0
VERTEX
8
Layer 1
10
101.896396
20
245.104734
70
0
0
VERTEX
8
Layer 1
10
102.514380
20
245.612724
70
0
0
VERTEX
8
Layer 1
10
103.127668
20
245.375564
70
0
0
VERTEX
8
Layer 1
10
103.580967
20
244.939098
70
0
0
VERTEX
8
Layer 1
10
104.428930
20
243.918634
70
0
0
VERTEX
8
Layer 1
10
104.685280
20
243.969464
70
0
0
VERTEX
8
Layer 1
10
105.051857
20
244.488426
70
0
0
VERTEX
8
Layer 1
10
105.301980
20
245.052664
70
0
0
VERTEX
8
Layer 1
10
105.800030
20
246.201444
70
0
0
VERTEX
8
Layer 1
10
106.301464
20
246.800406
70
0
0
VERTEX
8
Layer 1
10
106.930889
20
247.232526
70
0
0
VERTEX
8
Layer 1
10
108.386940
20
247.762084
70
0
0
VERTEX
8
Layer 1
10
108.386930
20
247.762094
70
0
0
SEQEND
8
Layer 1
0
POLYLINE
8
Layer 1
62
7
70
0
10
0.000000
20
0.000000
66
1
0
VERTEX
8
Layer 1
10
146.505270
20
186.103410
70
0
0
VERTEX
8
Layer 1
10
109.723020
20
153.151420
70
0
0
VERTEX
8
Layer 1
10
109.902340
20
139.572400
70
0
0
VERTEX
8
Layer 1
10
109.905529
20
133.292496
70
0
0
VERTEX
8
Layer 1
10
109.959275
20
130.165075
70
0
0
VERTEX
8
Layer 1
10
110.160200
20
127.198990
70
0
0
VERTEX
8
Layer 1
10
110.480080
20
125.595480
70
0
0
VERTEX
8
Layer 1
10
110.780940
20
125.016280
70
0
0
VERTEX
8
Layer 1
10
111.259880
20
124.531460
70
0
0
VERTEX
8
Layer 1
10
112.008402
20
124.101416
70
0
0
VERTEX
8
Layer 1
10
112.958480
20
123.776980
70
0
0
VERTEX
8
Layer 1
10
146.505270
20
186.103410
70
0
0
VERTEX
8
Layer 1
10
146.505270
20
186.103410
70
0
0
SEQEND
8
Layer 1
0
POLYLINE
8
Layer 1
62
7
70
0
10
0.000000
20
0.000000
66
1
0
VERTEX
8
Layer 1
10
97.398706
20
142.109710
70
0
0
VERTEX
8
Layer 1
10
88.638517
20
134.262130
70
0
0
VERTEX
8
Layer 1
10
89.646208
20
133.572250
70
0
0
VERTEX
8
Layer 1
10
90.772457
20
133.051098
70
0
0
VERTEX
8
Layer 1
10
91.977108
20
132.712566
70
0
0
VERTEX
8
Layer 1
10
93.180838
20
132.601691
70
0
0
VERTEX
8
Layer 1
10
94.304321
20
132.763510
70
0
0
VERTEX
8
Layer 1
10
95.030280
20
133.062984
70
0
0
VERTEX
8
Layer 1
10
95.700966
20
133.504206
70
0
0
VERTEX
8
Layer 1
10
96.276910
20
134.057481
70
0
0
VERTEX
8
Layer 1
10
96.718644
20
134.693110
70
0
0
VERTEX
8
Layer 1
10
97.298454
20
135.628970
70
0
0
VERTEX
8
Layer 1
10
97.298454
20
135.631040
70
0
0
VERTEX
8
Layer 1
10
97.398706
20
142.109710
70
0
0
VERTEX
8
Layer 1
10
97.398706
20
142.109710
70
0
0
SEQEND
8
Layer 1
0
POLYLINE
8
Layer 1
62
7
70
0
10
0.000000
20
0.000000
66
1
0
VERTEX
8
Layer 1
10
76.862492
20
123.711870
70
0
0
VERTEX
8
Layer 1
10
69.810209
20
117.393910
70
0
0
VERTEX
8
Layer 1
10
80.389925
20
111.815440
70
0
0
VERTEX
8
Layer 1
10
79.647377
20
115.216126
70
0
0
VERTEX
8
Layer 1
10
78.560063
20
118.640340
70
0
0
VERTEX
8
Layer 1
10
76.862492
20
123.711870
70
0
0
VERTEX
8
Layer 1
10
76.862492
20
123.711870
70
0
0
SEQEND
8
Layer 1
0
POLYLINE
8
Layer 1
62
7
70
0
10
0.000000
20
0.000000
66
1
0
VERTEX
8
Layer 1
10
127.266130
20
107.212100
70
0
0
VERTEX
8
Layer 1
10
127.398430
20
105.843710
70
0
0
VERTEX
8
Layer 1
10
127.978337
20
103.361908
70
0
0
VERTEX
8
Layer 1
10
128.899221
20
101.045825
70
0
0
VERTEX
8
Layer 1
10
131.296900
20
96.355400
70
0
0
VERTEX
8
Layer 1
10
131.707720
20
95.531680
70
0
0
VERTEX
8
Layer 1
10
138.269080
20
101.409870
70
0
0
VERTEX
8
Layer 1
10
127.266130
20
107.212100
70
0
0
VERTEX
8
Layer 1
10
127.266130
20
107.212100
70
0
0
SEQEND
8
Layer 1
0
POLYLINE
8
Layer 1
62
7
70
0
10
0.000000
20
0.000000
66
1
0
VERTEX
8
Layer 1
10
77.966817
20
63.157430
70
0
0
VERTEX
8
Layer 1
10
61.573503
20
32.700890
70
0
0
VERTEX
8
Layer 1
10
89.426066
20
57.652850
70
0
0
VERTEX
8
Layer 1
10
86.363865
20
58.600175
70
0
0
VERTEX
8
Layer 1
10
83.400248
20
59.815141
70
0
0
VERTEX
8
Layer 1
10
80.584728
20
61.325107
70
0
0
VERTEX
8
Layer 1
10
77.966817
20
63.157430
70
0
0
VERTEX
8
Layer 1
10
77.966817
20
63.157430
70
0
0
SEQEND
8
Layer 1
 0 
ENDSEC
 0 
EOF