<?xml version="1.0" encoding="UTF-8" standalone="no"?>
<!-- Created with Inkscape (http://www.inkscape.org/) -->

<svg
   width="210mm"
   height="297mm"
   viewBox="0 0 210 297"
   version="1.1"
   id="svg1"
   xml:space="preserve"
   inkscape:version="1.4.2 (ebf0e940, 2025-05-08)"
   sodipodi:docname="volt.svg"
   xmlns:inkscape="http://www.inkscape.org/namespaces/inkscape"
   xmlns:sodipodi="http://sodipodi.sourceforge.net/DTD/sodipodi-0.dtd"
   xmlns="http://www.w3.org/2000/svg"
   xmlns:svg="http://www.w3.org/2000/svg"><sodipodi:namedview
     id="namedview1"
     pagecolor="#505050"
     bordercolor="#ffffff"
     borderopacity="1"
     inkscape:showpageshadow="0"
     inkscape:pageopacity="0"
     inkscape:pagecheckerboard="1"
     inkscape:deskcolor="#505050"
     inkscape:document-units="mm"
     inkscape:zoom="0.74855609"
     inkscape:cx="211.07303"
     inkscape:cy="609.84074"
     inkscape:window-width="1896"
     inkscape:window-height="1002"
     inkscape:window-x="12"
     inkscape:window-y="37"
     inkscape:window-maximized="0"
     inkscape:current-layer="layer1" /><defs
     id="defs1"><inkscape:path-effect
       effect="offset"
       id="path-effect7"
       is_visible="true"
       lpeversion="1.3"
       linejoin_type="miter"
       unit="mm"
       offset="1"
       miter_limit="4"
       attempt_force_join="false"
       update_on_knot_move="true" /><inkscape:path-effect
       effect="clone_original"
       css_properties=""
       attributes="style,clip-path,mask"
       linkeditem="#path2"
       is_visible="true"
       method="d"
       allow_transforms="true"
       id="path-effect6"
       lpeversion="1" /><inkscape:path-effect
       effect="offset"
       id="path-effect5"
       is_visible="true"
       lpeversion="1.3"
       linejoin_type="miter"
       unit="mm"
       offset="0"
       miter_limit="4"
       attempt_force_join="false"
       update_on_knot_move="true" /><inkscape:path-effect
       effect="clone_original"
       css_properties=""
       attributes="style,clip-path,mask"
       linkeditem="#path2"
       is_visible="true"
       method="d"
       allow_transforms="true"
       id="path-effect4"
       lpeversion="1" /><inkscape:path-effect
       effect="clone_original"
       css_properties=""
       attributes="style,clip-path,mask"
       linkeditem="#path2"
       is_visible="true"
       method="d"
       allow_transforms="true"
       id="path-effect3"
       lpeversion="1" /><clipPath
       id="clip-1"><rect
         x="0"
         y="0"
         transform="scale(0.14648,0.14648)"
         width="2048"
         height="2048"
         fill="none"
         id="rect1" /></clipPath></defs><g
     inkscape:label="Layer 1"
     inkscape:groupmode="layer"
     id="layer1"><path
       d="m 108.38693,49.237906 c 1.4751,-0.02095 2.68652,0.32695 3.83203,1.29038 0.62988,0.52954 1.16895,1.20908 1.48682,1.97227 0.95801,2.30698 -1.43555,3.45513 -2.1665,5.40659 -0.94043,2.51206 -1.01221,5.81001 -0.6709,8.43911 0.25195,1.93052 1.45313,5.31401 1.33008,6.95259 -0.0937,1.23633 -1.71533,2.65151 -2.3584,3.76201 -1.14258,1.96846 -1.85449,4.33506 -1.91016,6.61392 -0.10986,4.55024 0.10107,9.1522 0.15381,13.70625 l 0.47168,33.691994 0.34717,26.36836 c 0.0674,3.99902 -0.15234,8.55176 0.26367,12.46582 0.13916,1.30957 0.37793,2.50928 1.48682,3.35742 1.39893,1.07227 3.83057,1.37109 5.52246,1.11914 1.4209,-0.2124 2.76709,-0.76172 3.88916,-1.66699 3.84229,-3.104 1.94092,-6.87158 4.15723,-9.58594 0.30762,-0.37646 0.76172,-0.5874 1.24365,-0.60937 0.91113,-0.0395 1.82959,0.48047 2.47852,1.08105 3.93896,3.63428 3.30615,10.42676 1.69043,14.96484 -0.94629,2.65576 -2.44336,5.17676 -3.08936,7.9292 -0.36914,1.57617 -0.36182,3.20508 -0.13623,4.80029 0.52881,3.72656 2.3335,6.51709 3.99463,9.79834 2.91357,5.75977 5.28516,12.17285 5.55322,18.67236 0.19775,4.77832 -1.10889,9.49512 -4.40771,13.0459 -7.02393,7.56445 -17.82129,6.70313 -27.22705,7.05029 -3.72945,0.13979 2.18804,-0.11054 -1.51425,0.0495 -1.68735,-0.0605 -3.519387,0.006 -5.176277,-0.15057 -7.17905,-0.67676 -14.86934,-2.75098 -20.27695,-7.76367 -1.03726,-1.05469 -1.9355,-2.21191 -2.64829,-3.50977 -1.58262,-2.88428 -2.13516,-6.13623 -2.06748,-9.3999 0.09976,-4.7959 1.47422,-9.60937 3.24917,-14.04785 2.43999,-6.09961 6.1043,-12.21533 5.59512,-19.02979 -0.20522,-2.74512 -1.11357,-5.37158 -1.97256,-7.96729 -2.24575,-6.78809 -5.33101,-14.42725 -3.1708,-21.61816 0.50654,-1.68604 1.4707,-3.96387 3.12759,-4.78564 0.78047,-0.38672 1.69614,-0.57422 2.44233,-1.01074 0.81797,-0.47754 0.62168,-1.06348 0.7875,-1.84424 0.46523,0.009 1.21714,0.32813 1.61133,0.60352 0.26953,0.1875 0.27554,0.25488 0.32915,0.55811 -0.11162,0.16992 -0.21958,0.34131 -0.32344,0.51563 -0.13696,0.22705 -0.3022,0.49365 -0.3252,0.76318 -0.06475,0.75732 0.46479,1.86914 0.59063,2.67041 0.26572,1.69336 0.14634,3.4292 0.58462,5.10059 0.58418,2.22803 1.97183,4.16455 3.99126,5.30273 1.58892,0.89502 3.64731,1.42529 5.43193,0.89648 1.2498,-0.36914 2.38828,-1.26562 3.00996,-2.4126 0.21064,-0.38818 0.4292,-0.72803 0.69624,-1.08105 l 0.8792,-56.69648 0.21108,-14.458154 c 0.04717,-2.38125 0.42686,-5.13384 0.04438,-7.46367 -0.21255,-1.29448 -1.54863,-2.0644 -2.11055,-3.17769 -0.50962,-1.00957 0.21489,-2.69268 0.51079,-3.67881 -0.48003,0.24375 -1.04399,0.59473 -1.58818,0.65742 -0.36768,0.04233 -0.7481,-0.06416 -1.02612,-0.31362 -0.28271,-0.25386 -0.36724,-0.64629 -0.34673,-1.01118 0.02798,-0.50054 0.29224,-1.0749 0.70884,-1.36934 0.29956,-0.21182 0.68408,-0.25181 1.02554,-0.12422 0.6999,0.26147 0.9958,1.08208 1.31001,1.69966 0.55298,-1.37886 0.9312,-2.83711 1.34619,-4.2624 -0.50859,0.26968 -1.06157,0.6082 -1.63066,0.7188 -0.42759,0.08306 -0.77402,0.04482 -1.13218,-0.21826 -0.24683,-0.46919 -0.22529,-0.8083 -0.09507,-1.30327 0.15996,-0.60762 0.32725,-1.24805 0.90645,-1.5709 0.99961,0.1002 1.31602,1.08618 2.04141,1.66055 0.23701,-0.2332 0.27451,-0.38745 0.37954,-0.69829 0.24756,-0.73169 0.840227,-2.07129 0.490277,-2.77632 -0.801557,-0.27129 -1.651167,0.52676 -2.519677,0.30923 -0.13447,-0.20757 -0.20068,-0.24712 -0.20537,-0.50625 -0.01216,-0.68291 0.33296,-1.90532 0.84214,-2.39106 0.19102,-0.18223 0.34702,-0.11865 0.59355,-0.12187 0.43169,0.19453 0.62944,0.39272 0.93018,0.75688 0.263087,0.3186 0.492187,0.76948 0.909367,0.8124 0.63457,-0.87539 0.87627,-2.59351 1.12969,-3.66826 -0.67383,0.42173 -1.45107,1.04106 -2.292627,0.78486 -0.2228,-0.06797 -0.46465,-0.27744 -0.56675,-0.47812 -0.19761,-0.38877 -0.20361,-0.81372 -0.08188,-1.22871 0.15176,-0.51753 0.42041,-0.81489 0.89238,-1.08018 0.287697,-0.0353 0.505807,-0.06577 0.783397,0.05229 0.72935,0.31025 1.00474,1.19194 1.31528,1.86021 l 0.51563,-1.4855 c 0.26074,-0.76685 0.72363,-1.7751 0.3457,-2.54297 -0.62988,-0.18105 -1.25537,0.41367 -1.88818,0.45747 -0.30352,0.02109 -0.35977,-0.06357 -0.57173,-0.2499 -0.27935,-0.85781 0.006,-1.53223 0.33091,-2.33145 0.16904,-0.4166 0.29209,-0.5748 0.70518,-0.74868 1.00195,0.1834 1.0957,1.48652 1.93799,1.85273 l 0.21826,-0.14985 c 0.25781,-0.76538 0.71338,-1.73672 0.79834,-2.52744 0.0322,-0.31362 -0.019,-0.33926 -0.21973,-0.55459 -0.70459,-0.09346 -1.31543,0.42744 -1.94824,0.34277 -0.41162,-0.05493 -0.72803,-0.38745 -0.91553,-0.72832 0.0102,-0.40898 0.13623,-0.74502 0.28271,-1.12222 0.2124,-0.54595 0.41602,-0.99888 0.97559,-1.24263 0.97119,0.1333 1.23486,1.09834 1.91455,1.69409 l 0.25635,-0.05083 c 0.60498,-0.64893 0.66797,-1.49561 1.11475,-2.23198 0.5625,-0.92827 1.59082,-1.30107 2.58691,-1.56064 z"
       fill="#000000"
       id="path2"
       style="mix-blend-mode:normal"
       inkscape:label="guitar"
       sodipodi:nodetypes="sccccccccccsccccccccccccccccccccccccccccccccccccccccccccccccccccccccscscccccccccccccccccccccccccss" /><path
       id="path3"
       style="fill:#000000;stroke-width:0.357055"
       d="M 146.50527 110.89659 L 109.72302 143.84858 L 109.90234 157.4276 C 109.97052 161.47236 109.75671 166.00478 110.1602 169.80101 C 110.22683 170.42809 110.31633 170.97183 110.48008 171.40452 C 110.64382 171.8372 110.8587 172.1617 111.25988 172.46854 C 111.67079 172.7835 112.27883 173.04887 112.95848 173.22302 L 146.50527 110.89659 z M 97.398706 154.89029 L 88.638517 162.73787 C 88.951193 162.99443 89.287622 163.22565 89.646208 163.42775 C 91.060349 164.22435 92.895097 164.65406 94.304321 164.23649 C 95.291572 163.94489 96.236682 163.1961 96.718644 162.30689 C 96.900188 161.97233 97.086271 161.67207 97.298454 161.37103 L 97.298454 161.36896 L 97.398706 154.89029 z M 76.862492 173.28813 L 69.810209 179.60609 L 80.389925 185.18456 C 80.088486 182.91595 79.32119 180.65964 78.560063 178.35966 C 78.023477 176.73775 77.426817 175.03915 76.862492 173.28813 z M 127.26613 189.7879 C 127.28832 190.24252 127.33379 190.69923 127.39843 191.15629 C 127.89243 194.63755 129.60705 197.30662 131.2969 200.6446 C 131.435 200.91761 131.57201 201.19212 131.70772 201.46832 L 138.26908 195.59013 L 127.26613 189.7879 z M 77.966817 233.84257 L 61.573503 264.29911 L 89.426066 239.34715 C 85.299413 238.25032 81.303621 236.51273 77.966817 233.84257 z " /></g></svg>
